<svg xmlns="http://www.w3.org/2000/svg" width="1000" height="620" viewBox="0 0 1000 620">
    <defs>
        <clipPath id="a">
            <path d="M0 800h800V0H0v800z"/>
        </clipPath>
        <clipPath id="b">
            <path d="M527.82 227.696h100.6v-3h-100.6v3z"/>
        </clipPath>
    </defs>
    <g clip-path="url(#a)" transform="matrix(1.25 0 0 -1.25 0 620)">
        <path d="M392.435 21.727c-.002.004-.002.01-.002.018 0-.008 0-.014.002-.018M392.566 20.896h.003c-.05.236-.09.47-.12.703.03-.235.07-.47.116-.704M393.424 18.49l-.017.033c.006-.012.01-.023.017-.033M393.342 18.65l-.065.135c.02-.047.043-.09.065-.135M392.807 19.97c.127-.4.28-.788.457-1.157-.18.377-.33.765-.454 1.158h-.003z" fill="#4b4b4b"/>
        <path d="M587.62 118.196c-55.14 0-100 44.86-100 100s44.86 100 100 100 100-44.86 100-100-44.86-100-100-100" fill="#bd4958"/>
        <path d="M587.62 138.196c-44.112 0-80 35.888-80 80s35.888 80 80 80 80-35.888 80-80-35.888-80-80-80" fill="#fbf7d7"/>
        <path d="M587.62 158.196c-33.084 0-60 26.916-60 60s26.916 60 60 60 60-26.916 60-60-26.916-60-60-60" fill="#bd4958"/>
        <path d="M587.62 178.196c-22.056 0-40 17.944-40 40s17.944 40 40 40 40-17.944 40-40-17.944-40-40-40" fill="#fbf7d7"/>
        <path d="M607.62 218.196c0-11.046-8.955-20-20-20-11.046 0-20 8.954-20 20s8.954 20 20 20c11.045 0 20-8.954 20-20" fill="#bd4958"/>
        <g clip-path="url(#b)" opacity=".3">
            <path d="M587.02 218.196c0-.828.673-1.5 1.5-1.5h99.08c.008.5.02.998.02 1.5s-.012 1-.02 1.5h-99.08c-.827 0-1.5-.672-1.5-1.5" fill="#575756"/>
        </g>
        <path d="M737.477 294.803L721.71 287.8l-6.543-11.77-127.254-56.52c-.757-.335-1.1-1.222-.762-1.978.337-.757 1.223-1.098 1.98-.762l127.255 56.518 13.12-3.037 15.765 7.003-9.38 6.34 1.587 11.21z" fill="#25475c"/>
        <path d="M497.597 495.29c-29.17-.034-52.85-23.683-52.85-52.858 0-14.022 7.133-26.128 14.36-36.98 15.964-23.982 6.892-36.975 16.108-36.975h44.819c9.224 0 .126 12.993 16.1 36.974 7.222 10.852 14.338 22.58 14.338 36.597.003 29.182-23.703 53.21-52.875 53.244" fill="#fcc969"/>
        <path d="M537.165 477.235c.02-.82.035-1.644.035-2.47 0-42.436-29.867-77.89-69.725-86.504 3.99-12.93 1.048-19.784 7.74-19.784h44.82c9.223 0 .125 12.993 16.098 36.975 7.222 10.85 14.34 22.58 14.34 36.597 0 13.438-5.036 25.777-13.308 35.188" fill="#fbbc43"/>
        <path d="M489.512 428.27c.06.036.115.057.178.057.06 0 .128-.024.22-.077.46-.29 1.213-1.443 1.076-3.93-.084-1.564-.47-2.86-1.142-3.883-.923 1.114-1.48 2.437-1.505 3.817-.042 2.623.72 3.76 1.172 4.016m14.037.293c.03.02.045.034.072.034.026 0 .057-.01.103-.034.48-.244 1.415-1.478 1.533-4.4.05-1.107-.26-2.2-.876-3.19-.912.87-1.586 1.983-1.692 3.383-.195 2.535.404 3.905.86 4.207m-31.72-5.98c-.564.71-1.603.827-2.308.266-.71-.57-.825-1.603-.262-2.312.29-.363.62-.714.98-1.06L487.77 366c.23-.694.87-1.134 1.562-1.134.167 0 .34.027.512.083.863.284 1.33 1.207 1.045 2.075l-16.19 49.413c3.93-1.916 8.846-2.794 12.857-1.518.868.277 1.654.644 2.367 1.093 1.96-1.284 4.36-2.05 6.904-2.05 3.01 0 5.855.965 8.01 2.686 1.204-.644 2.6-1.175 4.155-1.565 4.598-1.164 8.663-.883 12.048.77l-16.008-48.828c-.28-.864.19-1.79 1.044-2.072.174-.06.35-.082.52-.082.69 0 1.336.438 1.563 1.13l17.555 53.568c.145.175.314.32.456.503.56.713.436 1.748-.278 2.305-.717.562-1.747.436-2.303-.28-3.178-4.055-7.82-5.346-13.79-3.833-.67.17-1.65.467-2.66.924.99 1.555 1.48 3.323 1.4 5.115-.143 3.573-1.357 6.192-3.327 7.194-1.15.583-2.427.51-3.493-.198-1.73-1.153-2.573-3.777-2.31-7.193.16-2.074 1.065-3.917 2.615-5.43-2.69-1.68-6.73-1.86-9.62-.31 1.096 1.55 1.736 3.5 1.862 5.778.18 3.192-.807 5.775-2.632 6.906-1.165.725-2.562.76-3.743.084-1.864-1.05-2.894-3.576-2.84-6.922.034-2.165.874-4.197 2.26-5.872-.24-.108-.49-.202-.755-.286-4.908-1.564-12.072 1.2-14.726 4.533" fill="#3b5a6c"/>
        <path d="M520.94 415.85l-15.532-47.373h3.463l16.745 51.09c.144.174.313.318.456.502.558.713.435 1.748-.278 2.305-.717.562-1.747.436-2.303-.28-1.885-2.403-4.287-3.827-7.17-4.28-.98-1.162-1.986-2.296-3.022-3.405 2.82-.14 5.385.337 7.643 1.44M490.313 368.477l-8.01 24.444c-1.012-.416-2.04-.81-3.07-1.19l7.622-23.253h3.457z" fill="#25475c"/>
        <path d="M516.21 368.477h-37.243c-2.16 0-3.913-3.98-3.913-6.146 0-2.163 1.752-6.145 3.913-6.145h12.48l-13.67-2.548c-2.05-.664-3.18-1.93-2.513-3.985.533-1.656 2.07-2.24 3.726-2.24.397 0 .804.303 1.207.426l37.227 12.195c1.827.594 2.957 2.836 2.656 4.737-.306 1.903-1.944 3.707-3.87 3.707M516.164 340.82H503.72l13.653 6.173c2.053.663 3.18 3.742 2.513 5.8-.666 2.052-2.87 3.62-4.93 2.954l-37.198-11.856c-1.834-.598-2.958-3.228-2.658-5.13.296-1.903 1.94-4.086 3.868-4.086h3.382l5.918-9.22h18.456l6.01 9.22h3.43c2.165 0 3.91.912 3.91 3.073 0 2.163-1.745 3.073-3.91 3.073M726.91 347.706l-2.777 4.767c-.317.55-.91.892-1.552.892-.317 0-.617-.082-.895-.244-.412-.24-.71-.624-.83-1.09-.124-.462-.06-.944.18-1.358l2.777-4.773c-6.2-3.334-13.17-5.412-20.568-5.904v6.735c0 1.87-1.517 3.387-3.386 3.387-1.87 0-3.386-1.516-3.386-3.386v-6.734c-7.288.484-14.158 2.512-20.295 5.758l2.747 4.79c.237.415.3.896.176 1.362-.124.46-.424.846-.837 1.082-.278.158-.574.24-.89.24-.643 0-1.24-.345-1.557-.902l-2.744-4.784c-6.117 3.814-11.367 8.888-15.387 14.864l5.82 3.358c1.622.934 2.175 3.004 1.24 4.625-.934 1.62-3.004 2.172-4.624 1.238l-5.827-3.365c-3.065 6.213-4.898 13.135-5.175 20.452l5.532.015c.477.002.926.19 1.263.53.338.34.522.79.522 1.267-.005.986-.806 1.787-1.793 1.787l-5.535-.015c.236 7.428 2.077 14.46 5.186 20.758l5.828-3.362c.534-.308 1.115-.455 1.69-.455 1.17 0 2.306.61 2.935 1.694.935 1.618.382 3.69-1.24 4.624l-5.82 3.36c3.96 5.888 9.12 10.906 15.126 14.7l2.773-4.77c.16-.276.382-.494.654-.653.546-.313 1.24-.317 1.793.004.413.24.71.63.834 1.092.12.463.057.945-.184 1.358l-2.776 4.775c6.2 3.33 13.172 5.41 20.568 5.9v-6.732c0-1.87 1.517-3.386 3.386-3.386 1.87 0 3.386 1.515 3.386 3.386v6.73c7.287-.48 14.162-2.507 20.29-5.753l-2.742-4.792c-.49-.854-.194-1.953.66-2.444.278-.16.58-.237.892-.237.64 0 1.24.343 1.556.9l2.743 4.785c6.118-3.814 11.372-8.89 15.387-14.865l-5.82-3.36c-1.616-.933-2.174-3.005-1.24-4.623.63-1.085 1.765-1.693 2.936-1.693.574 0 1.156.148 1.69.456l5.828 3.362c3.063-6.21 4.896-13.134 5.173-20.45l-5.527-.016c-.48-.002-.93-.19-1.267-.528-.337-.34-.522-.79-.522-1.27.005-.64.35-1.234.903-1.55.27-.156.58-.236.89-.236h.005l5.532.017c-.237-7.43-2.078-14.462-5.186-20.762l-5.828 3.365c-1.617.934-3.687.382-4.622-1.24-.938-1.62-.38-3.69 1.236-4.624l5.82-3.358c-3.96-5.887-9.117-10.906-15.12-14.7M699.857 454.98c-35.466 0-64.32-28.853-64.32-64.318 0-35.465 28.854-64.318 64.32-64.318 35.465 0 64.322 28.85 64.322 64.318 0 35.467-28.857 64.32-64.322 64.32" fill="#25475c"/>
        <path d="M724.08 409.82l-21.717-12.05c-.986.52-2.11.818-3.305.818-1.196 0-2.318-.297-3.305-.817l-21.716 12.05c-2.05 1.138-4.64.396-5.78-1.656-1.14-2.053-.397-4.64 1.657-5.782l22.153-12.29c.642-3.28 3.526-5.754 6.99-5.754 3.466 0 6.35 2.474 6.993 5.753l22.153 12.292c2.054 1.14 2.795 3.73 1.656 5.782-1.14 2.052-3.727 2.794-5.78 1.655M722.553 90.128c0-7.78-6.47-14.115-14.422-14.115-7.94 0-14.42 6.334-14.42 14.115 0 7.78 6.48 14.104 14.42 14.104 7.956-.002 14.423-6.325 14.423-14.104m18.194 10.095l-2.272 5.397s5.287 11.92 4.816 12.38l-6.99 6.83c-.49.47-12.412-4.97-12.412-4.97l-5.5 2.22s-4.86 12.085-5.527 12.085h-9.87c-.688 0-5.184-12.11-5.184-12.11l-5.493-2.23s-12.174 5.174-12.64 4.712l-6.985-6.837c-.486-.47 5.075-12.15 5.075-12.15l-2.273-5.388s-12.34-4.755-12.34-5.397v-9.677c0-.675 12.37-5.078 12.37-5.078l2.273-5.38s-5.286-11.914-4.822-12.37l6.993-6.844c.475-.465 12.406 4.978 12.406 4.978l5.5-2.23s4.86-12.076 5.534-12.076h9.87c.684 0 5.185 12.11 5.185 12.11l5.51 2.227s12.148-5.172 12.617-4.72l6.996 6.84c.484.478-5.087 12.15-5.087 12.15l2.266 5.388s12.346 4.762 12.346 5.412v9.666c.004.672-12.36 5.063-12.36 5.063" fill="#25475c"/>
        <path d="M756.388 34.456c0-4.577-3.805-8.302-8.48-8.302-4.672 0-8.484 3.725-8.484 8.302 0 4.575 3.812 8.296 8.483 8.296 4.677-.002 8.48-3.72 8.48-8.296m10.702 5.937l-1.338 3.174s3.11 7.012 2.833 7.283l-4.112 4.015c-.288.277-7.3-2.923-7.3-2.923l-3.234 1.307s-2.86 7.106-3.252 7.106h-5.807c-.402 0-3.048-7.124-3.048-7.124l-3.23-1.31s-7.16 3.043-7.435 2.77l-4.107-4.02c-.285-.277 2.984-7.147 2.984-7.147l-1.336-3.168s-7.258-2.797-7.258-3.174V31.49c0-.395 7.276-2.985 7.276-2.985l1.337-3.164s-3.11-7.007-2.837-7.276l4.113-4.024c.277-.273 7.296 2.928 7.296 2.928l3.236-1.313s2.858-7.1 3.253-7.1h5.806c.403 0 3.05 7.12 3.05 7.12l3.24 1.31s7.147-3.04 7.422-2.776l4.115 4.023c.284.28-2.992 7.145-2.992 7.145l1.332 3.17s7.262 2.8 7.262 3.183v5.686c.002.394-7.27 2.977-7.27 2.977M775.82 130.35c0-4.576-3.805-8.3-8.48-8.3-4.672 0-8.484 3.724-8.484 8.3 0 4.577 3.812 8.297 8.483 8.297 4.676-.002 8.48-3.72 8.48-8.296m10.7 5.938l-1.336 3.175s3.11 7.01 2.833 7.282l-4.112 4.016c-.288.277-7.3-2.923-7.3-2.923l-3.234 1.307s-2.858 7.107-3.25 7.107h-5.807c-.403 0-3.05-7.122-3.05-7.122l-3.23-1.31s-7.16 3.043-7.434 2.77l-4.108-4.02c-.285-.277 2.985-7.147 2.985-7.147l-1.337-3.168s-7.258-2.796-7.258-3.174v-5.69c0-.398 7.276-2.988 7.276-2.988l1.337-3.164s-3.11-7.008-2.837-7.276l4.113-4.025c.28-.273 7.298 2.928 7.298 2.928l3.236-1.312s2.858-7.1 3.253-7.1h5.806c.402 0 3.05 7.12 3.05 7.12l3.24 1.31s7.146-3.04 7.42-2.776l4.116 4.024c.283.28-2.993 7.146-2.993 7.146l1.332 3.17s7.26 2.8 7.26 3.182v5.685c.004.395-7.27 2.978-7.27 2.978" fill="#25475c"/>
        <path d="M186.21 91.832s8.62 4.1 11.047 16.008c2.426 11.91 14.19 33.78 27.86 39.252l52.893-94.44s-31.518-15.177-58.667-10.88l-3.878-2.173L186.21 91.83z" fill="#f8d4a9"/>
        <path d="M142.662 205.598c2.22-11.674 13.486-19.338 25.16-17.117 11.674 2.222 19.337 13.488 17.116 25.162-2.22 11.673-13.486 19.34-25.16 17.117-11.675-2.223-19.337-13.49-17.116-25.162M407.662 256.02c2.817-14.806 17.106-24.526 31.915-21.71 14.808 2.818 24.527 17.108 21.71 31.914-2.818 14.807-17.106 24.53-31.915 21.712-14.807-2.818-24.527-17.108-21.71-31.915" fill="#25475c"/>
        <path d="M169 189.57c1.84-9.678 11.178-16.03 20.855-14.187 9.677 1.84 16.03 11.177 14.188 20.855l-7.727 40.605c-1.84 9.68-11.18 16.03-20.857 14.19-9.677-1.843-16.028-11.18-14.188-20.858L169 189.57z" fill="#25475c"/>
        <path d="M268.002 265.414l6.604-34.71 6.605-34.712s46.76 12.357 157.204-26.46l-16.956 89.113-16.956 89.113c-88.472-76.664-136.5-82.344-136.5-82.344" fill="#bd4958"/>
        <path d="M283.584 193.218l-97.456-18.544-14.394 75.65 97.455 18.543 14.394-75.65zM452.828 164.668c.684-3.595-1.675-7.063-5.27-7.748-3.593-.683-7.063 1.677-7.747 5.27L403.106 355.1c-.683 3.595 1.676 7.064 5.27 7.747 3.595.684 7.062-1.675 7.747-5.27l36.706-192.91z" fill="#fbf7d7"/>
        <path d="M191.98 243.92c-.197 1.04.487 2.044 1.527 2.242 1.04.197 2.045-.485 2.243-1.525l10.628-55.854c.198-1.04-.486-2.045-1.526-2.242-1.04-.198-2.047.486-2.244 1.526L191.98 243.92zM206.22 246.63c-.197 1.04.487 2.044 1.527 2.24 1.04.2 2.045-.483 2.243-1.523l10.627-55.855c.198-1.04-.485-2.045-1.526-2.242-1.04-.198-2.044.486-2.242 1.526L206.22 246.63zM220.46 249.34c-.198 1.04.486 2.043 1.526 2.24 1.04.2 2.046-.484 2.244-1.524l10.627-55.854c.198-1.04-.486-2.045-1.526-2.243-1.04-.2-2.044.486-2.242 1.525L220.46 249.34zM234.7 252.05c-.198 1.04.486 2.043 1.526 2.24 1.04.198 2.046-.483 2.243-1.523l10.627-55.856c.198-1.037-.486-2.044-1.526-2.24-1.04-.198-2.045.485-2.242 1.525L234.7 252.05zM248.94 254.758c-.198 1.04.485 2.044 1.526 2.24 1.04.2 2.045-.482 2.243-1.522l10.626-55.855c.198-1.038-.485-2.043-1.526-2.242-1.04-.197-2.045.487-2.242 1.526l-10.628 55.854z" fill="#25475c"/>
        <path d="M193.47 176.07s10.193-21.222 16.17-30.494c5.98-9.27 16.91.777 21.42-7.716 4.51-8.493 29.92-61.51 38.204-76.877 8.285-15.37 14.603-13.132 22.097-9.803 7.495 3.327 23.198 11.676 29 15.72 5.8 4.044-.244 16.727-12.346 10.966-6.335-2.763-32.518 66.374-33.884 69.918-1.366 3.545 4.142 3.382 5.437 7.78 1.295 4.396-5.053 4.742-5.664 7.05-.612 2.303 7.248 5.526 5.318 12.94-1.93 7.416-16.994 5.413-17.582 7.896-.59 2.48 3.39 6.12 3.39 6.12l-71.557-13.5z" fill="#bd4958"/>
        <path d="M254.97 152.943c2.546-4.848.68-10.845-4.17-13.39l-27.24-18.133c-4.85-2.55-5.194 2.15-7.742 6.998l-1.163 1.887c-2.546 4.85-1.01 8.534 2.233 11.467l24.69 15.34c4.848 2.55 10.845.682 13.392-4.17M301.954 123.07c2.604-6.09-.225-13.14-6.316-15.742l-21.6-9.235c-6.09-2.603-13.14.225-15.744 6.317-2.603 6.093.224 13.14 6.318 15.744l21.6 9.23c6.09 2.607 13.138-.223 15.742-6.314" fill="#f8d4a9"/>
        <path d="M287.708 143.072c2.604-6.09-.226-13.14-6.313-15.745l-21.6-9.234c-6.094-2.6-13.143.227-15.748 6.32-2.603 6.092.226 13.138 6.316 15.742l21.6 9.233c6.092 2.602 13.142-.225 15.745-6.316M308.374 100.682c2.308-5.397-.2-11.646-5.598-13.953l-19.144-8.186c-5.4-2.305-11.647.2-13.955 5.6-2.307 5.4.198 11.644 5.598 13.955l19.145 8.182c5.398 2.306 11.647-.204 13.954-5.6M310.9 78.853c2.032-4.755-.173-10.26-4.93-12.292l-16.865-7.208c-4.756-2.03-10.26.18-12.29 4.933-2.035 4.757.175 10.257 4.93 12.29l16.863 7.21c4.756 2.033 10.26-.175 12.29-4.932" fill="#f8d4a9"/>
        <path d="M218.3 34.017l-37.58-20.72-32.875 59.625 37.578 20.72L218.3 34.017z" fill="#fbf7d7"/>
        <path d="M187.225 10.043L169.01 0-19.2-12.8 108 55.57l41.505 22.883zM169.708 71.744c.43-2.26-1.054-4.44-3.314-4.87-2.26-.43-4.443 1.053-4.873 3.312-.43 2.26 1.055 4.443 3.316 4.872 2.26.432 4.442-1.052 4.872-3.314M184 78.705c.43-2.26-1.054-4.442-3.314-4.872-2.26-.43-4.442 1.054-4.873 3.314-.43 2.26 1.054 4.442 3.315 4.872 2.26.43 4.442-1.053 4.872-3.315M476.054 85.32L465.7 76.604V46.817h13.473V85.32h-3.12z" fill="#25475c"/>
        <path d="M446.952 72.605l-1.595 1.54V46.82h13.47v24.257c-3.76-2.037-8.74-1.5-11.875 1.53" fill="#fbbc43"/>
        <path d="M437.468 75.274l-13.466-9.986v-18.47h13.466v28.456z" fill="#fbf7d7"/>
        <path d="M415.94 59.31l-13.477-9.984v-2.51h13.476v12.495z" fill="#bd4958"/>
        <path d="M487.877 85.32v21.65l-20.278-.855c-1.516-.057-2.698-1.334-2.633-2.845.066-1.508 1.32-2.665 2.866-2.62l10.635.448-21.604-18.205c-1.7-1.428-4.488-1.333-6.086.21l-2.622 2.533c-3.6 3.473-9.567 3.855-13.586.88l-43.462-32.21c-1.216-.903-1.47-2.615-.567-3.83.543-.723 1.373-1.1 2.21-1.1.573 0 1.15.177 1.642.537l43.464 32.21c1.82 1.35 4.842 1.153 6.473-.42l2.62-2.533c3.6-3.474 9.644-3.675 13.47-.455l21.956 18.503V85.32c0-1.51 1.236-2.738 2.75-2.738 1.52 0 2.75 1.227 2.75 2.738" fill="#25475c"/>
        <g>
            <path d="M384.1 36.9h114.62v76c0 1.38-1.12 2.5-2.5 2.5-1.382 0-2.5-1.12-2.5-2.5v-71H384.1c-1.38 0-2.5-1.12-2.5-2.5s1.12-2.5 2.5-2.5" fill="#25475c"/>
        </g>
    </g>
</svg>
